<?xml version="1.0" encoding="UTF-8"?>
<svg id="Layer_2" data-name="Layer 2" xmlns="http://www.w3.org/2000/svg" viewBox="0 0 1199.84 356.85">
  <defs>
    <style>
      .cls-1 {
        fill: #fff;
      }

      .cls-2 {
        fill: #e53535;
      }
    </style>
  </defs>
  <g id="Layer_1-2" data-name="Layer 1">
    <path class="cls-2" d="m136.81,317.33c-2.57,10.06-8.02,18.27-16.06,24.79-7.06,5.73-15.17,9.37-23.89,11.73-4.66,1.26-9.4,2.08-14.2,2.53-.87.08-1.73.31-2.6.47h-10.02c-10.68-.02-21.16-1.47-31.34-4.74-6.88-2.2-13.31-5.33-19.07-9.74-10.22-7.83-16.35-18.14-18.59-30.78-.49-2.7-.72-5.45-1.03-8.18-.04-.37.1-.76.15-1.12,2.18-.37,36.41-.47,39.97-.11.13.5.28,1.04.41,1.59.42,1.72.7,3.48,1.25,5.14,2.08,6.22,6.15,10.64,12.21,13.21,3.19,1.35,6.52,2.17,9.95,2.56,6.49.72,12.95.77,19.33-.88,3.07-.8,5.97-1.97,8.56-3.83,6.56-4.72,6.91-11.68,5.43-16.46-.86-2.75-2.55-4.9-4.88-6.46-1.87-1.25-3.87-2.35-5.93-3.25-5.06-2.2-10.43-3.45-15.76-4.81-7.7-1.96-15.44-3.81-23.11-5.9-6.45-1.76-12.73-4.07-18.68-7.16-4.92-2.54-9.45-5.63-13.3-9.65-5.47-5.72-8.74-12.52-9.93-20.33-1.01-6.67-.87-13.31.54-19.92,2.44-11.42,8.55-20.34,18.19-26.88,6.18-4.18,13.01-6.86,20.23-8.61,9.13-2.21,18.42-2.96,27.79-2.68,8.28.24,16.45,1.31,24.38,3.84,6.9,2.19,13.3,5.31,18.96,9.89,8.78,7.1,14.02,16.3,16.18,27.3.43,2.21.64,4.47.92,6.72.07.57.01,1.16.01,1.84-.55.1-1.02.25-1.48.25-12.09.02-24.18.02-36.27,0-.29,0-.58-.08-1.03-.14-.15-.49-.36-1.02-.47-1.57-1.74-8.54-6.96-13.95-15.19-16.35-7.45-2.17-14.95-2.02-22.37.35-2.75.87-5.24,2.23-7.35,4.21-3.26,3.04-4.55,6.81-3.98,11.2.35,2.65,1.65,4.8,3.63,6.57,1.63,1.46,3.52,2.49,5.49,3.4,4.04,1.86,8.3,3.03,12.59,4.08,7.44,1.83,14.92,3.51,22.35,5.35,7.73,1.92,15.32,4.28,22.56,7.66,3.3,1.54,6.47,3.31,9.46,5.4,9.34,6.52,15.02,15.41,16.87,26.64,1.26,7.64,1.04,15.27-.88,22.82Z"/>
    <path d="m732.97,0c-.05,1.27-.14,2.55-.14,3.82-.01,17.6,0,35.19-.02,52.78,0,.6.41,1.35-.38,1.85-.32-.28-.72-.47-.89-.79-1.46-2.92-3.59-5.27-5.84-7.6-3.25-3.35-6.98-5.87-11.19-7.76-4.91-2.21-10.1-3.18-15.44-3.39-8.53-.34-16.55,1.59-23.97,5.82-3.15,1.79-5.8,4.24-8.55,6.56-.22.19-.44.4-.62.63-1.98,2.66-4.26,5.12-5.86,8.05-1.31,2.39-2.76,4.73-3.75,7.25-3.23,8.21-4.86,16.74-5.01,25.58-.16,9.71.85,19.2,4.15,28.41,2.67,7.46,6.69,13.98,12.45,19.47,3.59,3.42,7.69,6.06,12.19,7.87,7.79,3.14,15.99,3.89,24.31,2.78,3.69-.49,7.31-1.25,10.68-3.05,1.09-.58,2.24-1.04,3.34-1.67,1.18-.68,2.27-1.45,3.41-2.17,1.86-1.18,3.09-2.96,4.74-4.32,1.97-1.64,3.52-3.61,4.81-5.81.26-.45.62-1.03,1.44-.79,0,4.4-.01,8.82.01,13.23,0,.65.17,1.29.27,2.02,4.01,0,7.83.01,11.66-.02.35,0,.69-.23,1.15-.4v-3.6c0-46.97,0-93.95,0-140.93,0-1.27.02-2.55.03-3.82h-12.98Zm-1.85,115.24c-1.42,4.61-3.39,8.97-6.35,12.79-5.44,7.05-12.56,11.21-21.45,12.38-4.65.62-9.22.45-13.74-.73-3.89-1.01-7.45-2.72-10.57-5.35-5.79-4.88-9.35-11.14-11.44-18.32-2.56-8.78-3.31-17.72-2.57-26.83.55-6.61,1.91-13,4.36-19.16,1.23-3.09,2.91-5.88,4.94-8.48.72-.92,1.35-1.92,2.13-2.79,1.83-2.03,4.06-3.66,6.41-4.96,8.17-4.5,16.84-4.9,25.66-2.37,5.24,1.5,9.82,4.33,13.51,8.37,4.77,5.2,7.86,11.35,9.67,18.16,1.55,5.83,2.08,11.79,2.19,17.7-.16,6.7-.79,13.24-2.75,19.59Z"/>
    <path d="m236.3,145.13v3.25c-1.46.71-2.85.33-4.18.39-1.47.07-2.95.02-4.42.02h-3.96c-.78-.95-.52-1.87-.52-2.71-.02-8.16-.01-16.32-.01-24.48,0-15.72-.01-31.45,0-47.18,0-3.06-.32-6.07-1.05-9.05-1.15-4.66-3.84-8.3-7.6-11.13-2.37-1.78-5.15-2.82-8.07-3.38-6.17-1.19-12.3-1-18.36.81-3.37,1.01-6.48,2.55-9.45,4.4-4.25,2.65-7.23,6.37-9.55,10.75-2.45,4.63-3.4,9.57-3.4,14.75v63.69c0,1.06-.06,2.12-.09,3.14-2.34.49-10.04.53-12.82.08-.06-.52-.15-1.08-.17-1.65-.03-.69-.01-1.37-.01-2.06V3.82c0-1.27-.02-2.55-.03-3.82h12.97c.05,1.18.14,2.35.14,3.53,0,16.91,0,33.81,0,50.72,0,.93-.04,1.87.07,3.13,1.75-2.04,3.2-3.83,4.76-5.51,2.05-2.22,4.25-4.3,6.79-5.97,3.86-2.54,8.02-4.37,12.5-5.5,8.17-2.06,16.33-2.16,24.44.24,5.33,1.58,10.02,4.33,13.76,8.44,4.38,4.82,6.94,10.59,7.74,17.05.34,2.72.49,5.49.49,8.23.04,23.59.02,47.18.02,70.77Z"/>
    <path d="m979.68,2.93c.02,4.32.01,8.63,0,12.95,0,.86-.08,1.72-.12,2.53-2.2.46-8.61.56-12.64.2-.1-.58-.31-1.22-.31-1.86-.02-5.29.01-10.59.01-15.88,0-.29-.06-.58-.09-.87h12.98c.06.98.16,1.95.17,2.93Z"/>
    <path class="cls-2" d="m754.27,350.97c0,.58-.07,1.16-.12,1.91-.65.09-1.2.19-1.75.22-.79.03-1.57.01-2.36.01h-304.91c-1.26,0-2.53-.02-3.76-.03-.16-.48-.33-.75-.33-1.03-.02-53.27-.03-106.55-.04-159.83,0-.37.13-.75.22-1.24.62-.08,1.18-.18,1.75-.2,14.6-.39,306.7-.17,309.72.25.09.42.27.87.27,1.33.02,9.93.02,19.86.01,29.79,0,.47-.12.95-.19,1.52-.55.09-1.01.22-1.48.24-.98.04-1.96.02-2.95.02h-263.32c-1.26,0-2.52-.1-3.73.12-.37,2.58-.4,26.02-.02,28.95h259.78c.28,3.67.11,7.09.14,10.5.03,3.34.01,6.68.01,10.03v10.44c-.67.13-1.21.29-1.76.32-.98.05-1.97.02-2.95.02h-255.21c-.11.56-.27,1.01-.27,1.45-.01,10.62-.01,21.24,0,31.85,0,.39.09.77.16,1.28.7.06,1.36.15,2.02.17.88.03,1.77.01,2.65.01h268.17c.1.72.24,1.27.24,1.82.02,10.03.02,20.06.01,30.08Z"/>
    <path class="cls-2" d="m426.82,350.73c-1.36-1.13-2.04-2.67-2.31-4.34-.49-2.9-.97-5.81-1.21-8.74-.64-7.64-1.06-15.3-1.72-22.94-.42-4.79-1.09-9.56-2.32-14.23-2.7-10.3-8.85-17.58-18.75-21.63-.82-.33-1.65-.64-2.44-1.03-.3-.14-.51-.45-.91-.84.95-.4,1.66-.72,2.37-1.01,3-1.25,5.9-2.69,8.61-4.49,7.59-5.04,12.72-11.89,15.23-20.67,1.98-6.91,2.24-13.94,1.19-21.02-1.63-10.89-6.68-19.82-15.28-26.71-6.41-5.14-13.78-8.26-21.7-10.19-6.53-1.6-13.18-2.16-19.89-2.16-24.18-.01-48.36,0-72.54,0-.59,0-1.19-.05-1.77.02-.65.06-1.3.23-2.09.38v157.61c0,.79-.02,1.58,0,2.36.02.56.12,1.11.2,1.77.95.09,1.72.21,2.48.21,11.7.01,23.4.01,35.1,0,.65,0,1.31-.14,2.21-.24.06-5.12.02-10.12.03-15.11v-45.16c.66-.11,1.13-.26,1.6-.26,8.06-.01,16.12-.02,24.18.04,3.25.02,6.47.46,9.59,1.45,4.54,1.46,8.29,4.01,11,7.98,1.46,2.12,2.48,4.45,3.25,6.91,1.28,4.06,1.8,8.25,2.22,12.45.67,6.55,1.19,13.12,1.8,19.68.29,3.03.62,6.06,1.56,8.98.95,2.93,1.4,3.28,4.37,3.29,11.3,0,22.61,0,33.91-.01.77,0,1.53-.09,2.22-.13.57-.93.51-1.63-.2-2.22Zm-41.49-106.6c-.06,1.37-.28,2.75-.6,4.08-1.32,5.52-4.64,9.44-9.79,11.79-3.43,1.56-7.07,2.34-10.84,2.46-2.84.08-5.69.06-8.54.06-6.97.01-13.94,0-20.92,0h-3.03c-.12-.62-.28-1.07-.28-1.53-.01-12.28-.01-24.55,0-36.83,0-.46.1-.93.18-1.55.79-.05,1.45-.13,2.12-.13,9.72,0,19.44-.06,29.16.05,2.53.03,5.1.4,7.57.97,9.72,2.22,15.47,9.68,14.97,20.63Z"/>
    <path class="cls-2" d="m1199.6,352.68c-2.4.55-20.04.74-36.89.41-.76-.01-1.51-.15-2.45-.26-.25-3.86-.1-7.57-.12-11.28-.03-3.73-.01-7.47-.01-11.21v-44.65c-.6-.1-1.05-.24-1.5-.24-17.89-.01-35.78-.01-53.67-.01-.39,0-.77.07-1.12.11-.73.79-.46,1.72-.46,2.57-.02,7.66-.01,15.33-.01,23,0,12.78,0,25.55-.01,38.33,0,1.07-.05,2.14-.09,3.38-1.93.25-36.43.44-38.62.23-.37-.04-.73-.23-1.05-.34-.46-3.29-.66-137.1-.26-159.58.02-.67.11-1.33.17-2.09.58-.12,1.04-.28,1.51-.3,4.59-.28,36.02-.07,38.1.25.52,2.19.17,4.45.23,6.69.07,2.26.02,4.52.02,6.78v47.36c1.19.74,2.3.46,3.35.46,15.23.02,30.47.01,45.7.01,1.87,0,3.74.01,5.61,0,.58-.01,1.16-.06,1.74-.1.62-1.06.34-2.17.35-3.22.01-18.09.01-36.17.01-54.26,0-1.17.04-2.33.07-3.6.7-.15,1.25-.38,1.8-.38,12-.02,23.99-.02,35.98-.01.47,0,.94.11,1.54.18.11.65.24,1.2.28,1.77.05.68.02,1.37.02,2.06v154.52c0,1.16.13,2.34-.22,3.42Z"/>
    <path class="cls-2" d="m1048.96,300.06c-2.95,20.02-12.78,35.65-29.92,46.5-7.06,4.46-14.86,7.1-23.07,8.53-8.16,1.43-16.38,1.86-24.66,1.27-30.93-2.16-55.13-20.33-66.23-47.5-3.75-9.18-5.82-18.72-6.57-28.59-.94-12.48.22-24.74,3.8-36.73,3.71-12.43,9.83-23.52,18.87-32.92,10.6-11.04,23.5-17.99,38.41-21.1,14.38-3.01,28.72-2.55,42.86,1.61,9.95,2.94,18.84,7.83,26.41,14.99,8.11,7.68,13.56,17.01,16.66,27.7.95,3.29,1.53,6.7,2.24,10.06.16.75.14,1.55.21,2.48-3.67.39-37.51.31-39.84-.08-.23-.98-.46-2.02-.74-3.04-3.24-11.85-10.89-19.05-22.89-21.53-6.38-1.32-12.72-.88-18.92,1.09-7.41,2.35-13.15,6.91-17.47,13.32-3.05,4.53-5.19,9.47-6.53,14.74-3.65,14.29-3.82,28.57.23,42.8,1.76,6.2,4.52,11.95,8.64,16.95,8.29,10.06,18.98,14.19,31.88,12.84,3.24-.34,6.38-1.14,9.36-2.45,8.78-3.86,14.23-10.55,16.69-19.75.2-.76.36-1.53.52-2.3.14-.65.25-1.32.36-1.91,2.42-.41,36.5-.47,39.72-.07.32.99.13,2.06-.02,3.09Z"/>
    <path class="cls-2" d="m896.45,192.32c.01,10.32.01,20.64,0,30.96,0,.38-.08.76-.14,1.2-1.07.5-2.16.28-3.21.28-13.47.02-26.94,0-40.4,0h-3.6c-.15,3.83-.06,7.36-.08,10.89-.01,3.53,0,7.07,0,10.61v95.85c0,3.51.02,7.03-.02,10.62-.73.15-1.19.31-1.65.34-4.67.27-36,.06-37.99-.24-.05-.09-.11-.17-.15-.25-.05-.09-.1-.17-.13-.27-.02-.09-.02-.19-.03-.29,0-.19-.02-.39-.03-.59-.01-.09-.01-.19-.01-.29v-124.75c0-.1,0-.2-.01-.29-.02-.2-.04-.39-.07-.59-.02-.09-.05-.18-.11-.37-.9-.69-2.03-.36-3.06-.36-11.21-.03-22.41-.02-33.62-.02-2.65,0-5.31.01-7.96,0-.66,0-1.32-.08-1.94-.13-.43-2.62-.63-24.08-.31-32.25.02-.47.16-.93.26-1.46.66-.07,1.24-.19,1.81-.19,44.03-.01,88.05-.01,132.15-.01.13.66.3,1.13.3,1.6Z"/>
    <path class="cls-2" d="m276.33,223.33c-.01.38-.12.76-.21,1.34-2.65.21-5.29.07-7.93.1-2.55.02-5.11,0-7.66,0h-31.37c-.14.66-.31,1.2-.35,1.76-.05.88-.01,1.76-.01,2.65,0,40,0,80,0,119.99,0,1.17-.05,2.34-.08,3.71-3.59.38-37.27.29-39.61-.1-.09-.5-.25-1.05-.28-1.6-.05-.88-.02-1.77-.02-2.66v-119.99c0-1.16-.04-2.33-.07-3.58-1.94-.33-3.7-.14-5.44-.17-1.67-.03-3.34-.01-5.01-.01h-25.95c-1.67,0-3.34.03-5.01,0-1.74-.03-3.5.16-5.18-.13-.45-2.73-.62-21.8-.31-31.94.01-.57.14-1.14.22-1.66,2.64-.43,94.1-.63,131.25-.3.86,0,1.73.1,2.74.16.11.57.28,1.03.28,1.48.01,10.32.01,20.64.01,30.96Z"/>
    <path d="m1089.33,44.52c0-.49.03-.99-.01-1.48-.05-.55-.16-1.1-.28-1.8-3.68,0-7.2-.01-10.73.01-.54.01-1.09.19-1.77.32v8.08c0,1.27.05,2.55-.02,3.83-.06,1.33.27,2.7-.25,4.08-.4-.21-.75-.29-.88-.5-2.49-4.1-5.46-7.7-9.41-10.58-4.05-2.95-8.37-5.16-13.2-6.38-1.62-.4-3.28-.62-4.94-.83-10.12-1.23-19.65.53-28.58,5.57-4.59,2.59-8.44,6.06-11.72,10.03-3.99,4.82-6.81,10.41-8.65,16.45-4.08,13.4-4.19,26.87-.84,40.43,1.64,6.62,4.51,12.67,8.53,18.18,1.14,1.57,2.36,3.14,3.77,4.46,2.07,1.91,4.23,3.76,6.56,5.32,2.14,1.44,4.47,2.69,6.87,3.63,4.58,1.79,9.34,2.91,14.29,3.29,5.24.4,10.4.01,15.49-1.27,5.18-1.3,9.65-3.86,13.76-7.32,2.87-2.42,5.15-5.27,7.45-8.15.4-.5.73-1.06,1.09-1.6.18.06.36.12.54.18.04.37.13.73.13,1.1.01,5.21.07,10.42-.02,15.63-.06,3.73-.43,7.45-1.57,11.05-1.35,4.26-3.59,8.04-6.82,11.08-3.54,3.32-7.79,5.5-12.54,6.67-7.17,1.77-14.4,1.84-21.66.84-3.32-.46-6.54-1.33-9.6-2.73-1.4-.65-2.89-1.26-4.1-2.2-3.56-2.77-6.14-6.27-7.1-10.79-.06-.28-.24-.52-.35-.75-2.98-.5-10.29-.42-12.27.15,0,.36-.04.75.01,1.13.41,3.46,1.65,6.67,3.41,9.62,1.55,2.59,3.38,5.05,5.77,6.96,4.63,3.69,9.85,6.25,15.56,7.8,4.37,1.19,8.83,1.88,13.36,2.1,9.18.43,18.25.04,26.84-3.75,6.46-1.85,11.28-6.13,15.53-11.01,2.74-3.14,4.65-6.93,5.96-10.96,1.73-5.28,2.41-10.69,2.41-16.24-.03-33.22-.02-66.44-.02-99.65Zm-14.93,68.58c-1.64,4.95-4.08,9.52-7.69,13.27-4.43,4.6-9.89,7.51-16.24,8.64-6.78,1.21-13.53,1.06-20.03-1.29-3.04-1.1-6.09-2.47-8.39-4.97-.13-.15-.28-.27-.43-.4-4.7-4.08-7.61-9.3-9.49-15.14-2.6-8.04-3.38-16.31-2.81-24.71.37-5.5,1.31-10.89,3.12-16.13,1.44-4.18,3.61-7.87,6.16-11.45,1.7-2.39,4.2-3.75,6.05-5.86,3.84-2.4,7.97-4.1,12.45-4.71,5.59-.77,11.2-.66,16.61,1.09,6.57,2.12,12.04,5.8,15.92,11.67,4.03,6.09,6.23,12.81,7.07,20,.39,3.31.54,6.65.79,9.97-.17,6.83-.93,13.53-3.09,20.02Z"/>
    <path d="m101.09,90.12c-1.54-6.11-4.33-11.64-8.32-16.59-2.04-2.53-4.25-4.76-6.81-6.79-3.97-3.17-8.31-5.58-13.05-7.25-7.97-2.8-16.17-3.15-24.42-1.59-8.44,1.59-15.76,5.46-21.83,11.6-2.2,2.22-4.04,4.74-5.8,7.31-.57.85-1.15,1.71-1.74,2.58-.67-.58-.43-1.19-.44-1.72,0-6.1.35-12.17,1.2-18.22,1.37-9.79,3.72-19.24,8.9-27.79,1.72-2.83,3.61-5.55,6.04-7.81.93-.86,2.06-1.5,3.01-2.33,1.82-1.6,3.91-2.82,6.12-3.68,5.76-2.21,11.76-3.04,17.92-2.44,6.62.64,12.26,3.35,16.69,8.3,3.19,3.56,5.19,7.8,6.16,12.49.27,1.33.51,2.66.75,3.93,2.85.48,11.1.44,13.37-.06.35-1.37-.21-2.68-.45-3.99-1.33-7.37-4.37-13.99-9.23-19.69-4.67-5.49-10.63-9.07-17.48-11.15-6.98-2.11-14.11-2.29-21.3-1.3-10.12,1.4-18.79,5.67-25.98,12.98-3.99,4.07-7.23,8.66-9.82,13.69-2.02,3.91-3.52,8.04-4.83,12.25-2.83,9.07-4.15,18.39-4.52,27.84-.46,12,.08,23.97,2.27,35.82,1.32,7.16,3.43,14.07,6.82,20.56,1.62,3.11,3.56,6.03,5.88,8.63,2.28,2.54,4.78,4.89,7.53,6.97,2.86,2.16,5.85,4.11,9.17,5.4,6.85,2.63,13.96,3.85,21.33,3.68,8.51-.2,16.29-2.47,23.5-7.09,4.5-2.87,8.3-6.38,11.47-10.59,3.13-4.15,5.48-8.74,7.05-13.72,3.16-9.99,3.4-20.09.84-30.23Zm-13.99,28.38c-1.54,4.48-3.88,8.54-7.1,12-4.44,4.78-9.9,7.89-16.32,9.17-6.09,1.21-12.11.81-18.06-.97-3.95-1.18-7.46-3.09-10.8-5.52-4.58-3.33-7.45-7.8-9.6-12.86-2.19-5.13-3.11-10.52-3-16.6-.25-5.3,1.09-10.82,3.35-16.09,1.14-2.64,2.74-5.1,4.69-7.31,2.6-2.96,5.51-5.58,8.88-7.55,2.85-1.67,6.04-2.66,9.28-3.37,6.46-1.42,12.88-1.37,19.18.75,3.89,1.31,7.36,3.3,10.48,6.05,6.24,5.5,9.54,12.46,10.83,20.51,1.19,7.41.63,14.69-1.81,21.79Z"/>
    <path d="m778.23,97.47h38.04c12.49,0,24.97,0,37.46-.01.95,0,1.95.25,3.01-.39.03-.53.09-1.1.08-1.67-.09-6.2-.7-12.35-1.96-18.43-1.48-7.15-4.1-13.85-8.06-19.98-.94-1.46-2.35-2.63-3.22-4.12-1.49-2.55-3.9-4.11-6.06-5.86-3.57-2.89-7.67-4.98-12.13-6.24-9.09-2.55-18.24-2.8-27.38-.41-3.1.8-6.14,1.96-9.07,3.27-2.02.9-3.83,2.29-5.68,3.55-2.26,1.53-4.44,3.18-6.31,5.19-.93,1-1.73,2.12-2.61,3.17-1.9,2.24-3.49,4.69-4.96,7.22-2.67,4.61-4.48,9.57-5.75,14.72-2.32,9.37-2.61,18.86-1.35,28.4,1.26,9.53,4.15,18.46,9.78,26.41,2.92,4.11,6.42,7.58,10.42,10.56,4.1,3.06,8.73,5.07,13.63,6.49,7.77,2.24,15.66,2.67,23.65,1.61,5.89-.78,11.4-2.75,16.45-5.81,4-2.42,7.49-5.46,10.39-9.27,4.03-5.31,6.8-11.12,8.47-17.5.16-.63.11-1.31.16-1.96-2.59-.34-9.66-.34-12.32.01-.26.74-.56,1.55-.85,2.37-1.05,2.96-2.42,5.74-4.1,8.43-4,6.43-9.8,10.17-16.98,11.98-5.82,1.46-11.69,1.43-17.54.28-4.13-.82-8.14-2.13-11.58-4.55-3.08-2.18-5.94-4.7-8.07-7.91-1.4-2.11-2.97-4.13-3.95-6.48-2.77-6.68-4.33-13.65-4.75-20.87-.03-.65.03-1.31.05-2.1,1.16-.04,2.13-.1,3.09-.1Zm-2.7-12.53c.88-6.23,2.48-12.29,5.42-17.87,3.08-5.86,7.6-10.5,13.32-13.85,2.6-1.53,5.57-2.26,8.5-2.88,5.85-1.22,11.73-1.16,17.49.48,4.37,1.25,8.24,3.35,11.6,6.54,5.7,5.44,8.53,12.26,10.12,19.74.68,3.17.94,6.4,1.13,9.78-3.07.37-64.95.35-67.59,0,0-.63-.08-1.29.01-1.94Z"/>
    <path d="m345.3,67.93c-3.35-7.8-8.19-14.59-15.02-19.73-4.07-3.07-8.58-5.49-13.48-7.07-8.41-2.7-16.98-2.99-25.63-1.53-4.05.68-8.01,1.86-11.72,3.63-4.39,2.09-8.4,4.8-11.86,8.28-3.24,3.26-6.2,6.7-8.45,10.73-2.98,5.34-5.08,11-6.39,16.97-2.17,9.92-2.24,19.88-.43,29.85,1.01,5.52,2.8,10.81,5.2,15.88,2.3,4.89,5.64,9.06,9.16,13.11.38.44.83.83,1.28,1.21.91.74,1.85,1.45,2.75,2.19,2.93,2.41,6.07,4.54,9.55,5.95,10.17,4.09,20.67,5.19,31.48,3.06,5.52-1.08,10.6-3.3,15.32-6.21,4.39-2.71,8.18-6.16,11.34-10.4,3.93-5.28,6.94-10.95,8.96-17.17,2.27-6.98,3.14-14.17,3.09-21.48,0-.69.01-1.38,0-2.07-.1-8.73-1.7-17.18-5.15-25.2Zm-8.12,27.02c.06,6.38-.69,12.2-2.32,17.91-1.49,5.22-3.64,10.14-6.97,14.43-2.69,3.45-5.81,6.47-9.7,8.68-9.17,5.21-18.73,5.57-28.65,2.72-3.69-1.06-7.09-2.82-9.95-5.2-3.04-2.53-5.69-5.57-7.79-9.02-3.36-5.52-5.26-11.57-6.29-17.85-1.51-9.2-1.28-18.39.92-27.5,1.07-4.41,2.69-8.61,4.9-12.54,1.81-3.24,4.34-5.98,6.99-8.61,2.6-2.58,5.85-4.04,8.92-5.83,5.48-1.65,11.01-2.83,16.8-2.29,3.94.37,7.78,1.16,11.32,2.88,4.59,2.22,8.62,5.17,11.8,9.32,4.93,6.45,7.8,13.7,9.14,21.62.65,3.87,1.03,7.79.88,11.28Z"/>
    <path d="m609.12,127.96c-.95,4.04-2.89,7.7-5.61,10.79-2.74,3.12-5.94,5.71-9.74,7.69-6.76,3.53-13.93,4.99-21.44,5.26-7.52.27-14.9-.49-22.06-2.94-4.58-1.56-8.87-3.73-12.52-6.86-5.79-4.98-9.54-11.31-11.25-18.78-.57-2.48-1.16-4.96-1.06-7.64,2.16-.71,4.32-.26,6.44-.33,2.13-.07,4.28-.07,6.55.05.2.91.41,1.65.52,2.41.43,2.93,1.2,5.78,2.47,8.42,1.9,3.95,4.74,7.15,8.45,9.53,3.18,2.04,6.66,3.38,10.35,4.07,6.24,1.16,12.5,1.21,18.76.11,3.62-.64,7.03-1.92,10-4.02,6.31-4.46,8.78-10.76,7.99-18.37-.16-1.55-.46-3.07-1.12-4.55-1.89-4.22-5.38-6.54-9.42-8.3-6.51-2.84-13.42-4.25-20.28-5.88-6.11-1.45-12.21-2.97-18.06-5.3-3.73-1.47-7.36-3.22-10.43-5.78-4.67-3.91-7.42-9.03-8.12-15.12-.69-6.07-.05-11.95,2.97-17.42,1.92-3.49,4.6-6.28,7.74-8.66,5.21-3.94,11.26-5.78,17.57-6.79,7.05-1.13,14.11-.94,21.1.51,4.71.97,9.16,2.61,13.21,5.31,4.31,2.87,7.67,6.51,10.06,11.11,2.14,4.12,3.67,8.41,4.23,13.03.04.29.01.59.01,1.08-2.36.37-9.31.42-12.65.09-.19-.76-.45-1.59-.59-2.43-.7-4.27-2.67-7.94-5.44-11.17-1.34-1.55-3.01-2.78-4.83-3.76-4.22-2.29-8.78-3.29-13.52-3.58-4.14-.26-8.23.11-12.29,1.03-3,.68-5.87,1.83-8.3,3.63-3.5,2.58-5.71,6.14-6.25,10.56-.32,2.65-.2,5.3.6,7.88.81,2.6,2.56,4.51,4.66,6.11,3.29,2.52,7.22,3.67,11.12,4.73,6.25,1.7,12.57,3.12,18.84,4.72,3.42.87,6.84,1.79,10.21,2.83,4.8,1.5,9.2,3.85,13.23,6.86,2.46,1.83,4.23,4.26,5.66,6.98,3.84,7.34,4.09,15.02,2.24,22.89Z"/>
    <path d="m949.37,128.67c-1.17,4.15-3.1,8-6.42,10.96-.59.53-1.17,1.07-1.66,1.67-2.14,2.64-5.14,4.09-7.99,5.67-3,1.66-6.28,2.67-9.63,3.4-7.18,1.56-14.41,1.72-21.69.9-4.41-.5-8.72-1.46-12.84-3.09-3.43-1.35-6.72-2.94-9.62-5.31-1.6-1.3-3.28-2.51-4.6-4.08-4-4.78-6.85-10.17-8.13-16.32-.47-2.29-.94-4.58-.87-6.92,2.15-.54,10.32-.58,13.07-.06.11.59.24,1.24.36,1.9.74,4.38,2.01,8.58,4.66,12.2,2.13,2.9,4.73,5.32,8,7,4.62,2.38,9.52,3.53,14.66,3.79,5.12.27,10.21.16,15.21-1.21,3.52-.97,6.76-2.58,9.49-4.94,3.76-3.26,5.72-7.57,6.13-12.55.09-1.17.06-2.36.01-3.53-.19-4.97-2.46-8.63-6.62-11.41-2.75-1.84-5.67-3.13-8.77-4.03-4.98-1.46-10.01-2.81-15.08-3.97-6.42-1.48-12.78-3.15-18.9-5.54-3.22-1.25-6.38-2.77-9.08-5.07-1.7-1.46-3.49-2.74-4.77-4.7-1.41-2.15-2.63-4.35-3.36-6.79-1.95-6.54-1.59-13.03.85-19.35.98-2.53,2.6-4.76,4.41-6.84,2.99-3.43,6.59-6.05,10.74-7.79,3.52-1.47,7.22-2.52,11.02-3.08,7.05-1.06,14.09-.96,21.11.4,3.96.78,7.79,1.98,11.28,4.02,2.39,1.41,4.62,3.04,6.68,5.02,5.93,5.71,8.64,12.85,9.96,20.71.05.28-.05.57-.07.84-2.2.41-9.87.45-12.74.06-.24-1.09-.49-2.22-.73-3.36-.76-3.73-2.41-7.04-4.93-9.85-1.16-1.3-2.53-2.51-4.02-3.38-3.11-1.82-6.43-3.24-10.06-3.79-7.02-1.04-13.92-.81-20.62,1.71-6.37,2.4-10.11,6.92-10.91,13.74-.48,4.08.52,7.79,2.92,11.12.29.39.59.84.99,1.07,2.07,1.2,3.89,2.7,6.18,3.6,7.26,2.85,14.85,4.43,22.38,6.27,3.81.94,7.63,1.85,11.4,2.95,4.97,1.44,9.66,3.48,13.89,6.58,3.57,2.63,6.09,5.96,7.74,10.02,2.86,7.01,2.97,14.19.97,21.36Z"/>
    <path d="m1194.25,72.78c-.01,24.27-.01,48.54-.01,72.82,0,.96-.07,1.92-.1,2.83-2.54.47-10.18.48-12.88.02-.04-1.01-.11-2.06-.11-3.12v-70.47c0-2.45-.08-4.9-.53-7.33-.69-3.83-2.19-7.3-4.69-10.25-1.12-1.31-2.52-2.48-4-3.38-3.55-2.16-7.46-3.36-11.63-3.65-5.35-.38-10.58.17-15.69,1.86-3.8,1.25-7.13,3.2-10.25,5.7-3.59,2.87-6.12,6.43-8.08,10.52-1.82,3.79-2.49,7.82-2.67,11.96-.07,1.67,0,3.34,0,5.01v63.17c-2.25.61-4.4.23-6.52.3-2.05.07-4.11.02-6.27.02-.12-.74-.25-1.29-.3-1.86-.04-.58-.01-1.17-.01-1.76V41.6c2.26-.71,4.41-.26,6.52-.34,2.05-.08,4.1-.02,6.2-.02.62,1.37.32,2.65.37,3.89.04,1.38.01,2.75.01,4.13v7.57c2.59-2.57,4.89-5.07,7.32-7.47,2.18-2.14,4.67-3.81,7.3-5.21,10.11-5.39,20.83-6.52,31.94-4.08,5.1,1.12,9.66,3.5,13.65,6.84,3.42,2.88,5.88,6.49,7.62,10.64,2.04,4.89,2.82,9.97,2.82,15.23Z"/>
    <path d="m447.79,146.65c0,.58-.06,1.16-.1,1.84-2.06.58-4.12.22-6.14.28-2.05.06-4.1.02-6.28.02-.52-2.68-.2-5.22-.26-7.74-.05-2.43-.01-4.87-.01-7.22-.24-.12-.32-.2-.41-.21-.08,0-.19.06-.25.12-.86.94-1.88,1.78-2.53,2.85-1.19,1.97-2.82,3.52-4.49,5.02-4.54,4.1-9.67,7.21-15.71,8.54-7.9,1.73-15.77,1.59-23.59-.72-4.46-1.32-8.51-3.44-11.95-6.47-3.44-3.03-6.05-6.8-7.71-11.18-1.8-4.75-2.59-9.66-2.59-14.71-.01-24.37-.01-48.75,0-73.12,0-.78.07-1.56.11-2.46,3.59-.39,10.41-.34,12.71.08.35,1.1.19,2.28.19,3.43.01,23.3,0,46.59.02,69.88,0,3.84.27,7.66,1.53,11.34,1,2.89,2.41,5.6,4.59,7.7,2.29,2.18,4.94,3.89,8.11,4.78,3.83,1.07,7.67,1.63,11.63,1.62,6.04-.02,11.6-1.76,16.59-5.01,7.55-4.93,11.77-12.11,13.2-20.94.39-2.41.52-4.89.53-7.34.04-20.74.02-41.47.02-62.21,0-1.07.05-2.13.07-3.15,2.14-.54,9.24-.61,12.35-.17.07.07.16.12.2.2.05.08.08.19.08.28.04,34.89.07,69.78.09,104.67Z"/>
    <path d="m518.63,53.52c-.34,0-.72.05-1.08,0-5.5-.88-10.73.4-15.91,2.04-2.28,1.45-4.73,2.55-6.9,4.25-4.02,3.16-6.82,7.21-9.04,11.64-2.03,4.05-3.03,8.48-3.31,13.03-.12,1.86-.11,3.73-.11,5.6-.01,18.38,0,36.77-.01,55.15,0,1.06-.06,2.12-.09,3.13-2.19.53-9.46.61-12.65.18-.07-.07-.16-.13-.21-.21-.04-.08-.07-.18-.07-.27-.02-35.2-.04-70.39-.04-105.58-.01-.28.1-.56.22-1.14,4.28-.17,8.37-.06,12.61-.08.47,3.34.17,6.47.22,9.58.06,3.14.01,6.28.01,9.4.96.2,1-.58,1.24-1.01,2.97-5.29,7.08-9.57,11.94-13.08,3.48-2.51,7.53-3.97,11.74-4.91,2.61-.58,5.24-.81,7.9-.81,1.16.01,2.32.17,3.41.26.57,2.19.64,9.97.13,12.84Z"/>
    <path d="m979.69,44.88c0,33.39,0,66.77-.01,100.15,0,1.16-.06,2.31-.09,3.42-2.76.46-10.42.45-12.84-.02-.05-.42-.14-.89-.15-1.36-.34-12.12-.14-102.58.23-105.4,1.89-.54,8.78-.65,12.67-.17.06.51.15,1.06.18,1.62.03.58.01,1.17.01,1.76Z"/>
    <path class="cls-1" d="m385.33,244.13c-.06,1.37-.28,2.75-.6,4.08-1.32,5.52-4.64,9.44-9.79,11.79-3.43,1.56-7.07,2.34-10.84,2.46-2.84.08-5.69.06-8.54.06-6.97.01-13.94,0-20.92,0h-3.03c-.12-.62-.28-1.07-.28-1.53-.01-12.28-.01-24.55,0-36.83,0-.46.1-.93.18-1.55.79-.05,1.45-.13,2.12-.13,9.72,0,19.44-.06,29.16.05,2.53.03,5.1.4,7.57.97,9.72,2.22,15.47,9.68,14.97,20.63Z"/>
  </g>
</svg>